<svg xmlns="http://www.w3.org/2000/svg" viewBox="0 0 100 60">
  <polyline
    points="0,30 10,30 15,30 20,28 25,32 30,30 35,30 40,30 42,30 44,10 46,50 48,25 50,35 52,30 55,30 60,30 65,30 70,28 75,32 80,30 85,30 90,30 92,30 94,12 96,48 98,30 100,30"
    fill="none"
    stroke="#f59e0b"
    stroke-width="2"
    stroke-linecap="round"
    stroke-linejoin="round"
  />
  <polyline
    points="0,60 10,60 15,60 20,58 25,62 30,60 35,60 40,60 42,60 44,10 46,50 48,25 50,35 52,30 55,30 60,30 65,30 70,28 75,32 80,30 85,30 90,30 92,30 94,12 96,48 98,30 100,60"
    fill="#f59e0b"
    fill-opacity="0.1"
    stroke="none"
  />
</svg>
